<?xml version="1.0" standalone="no"?>
<!DOCTYPE svg PUBLIC "-//W3C//DTD SVG 20010904//EN"
 "http://www.w3.org/TR/2001/REC-SVG-20010904/DTD/svg10.dtd">
<svg version="1.0" xmlns="http://www.w3.org/2000/svg"
 width="850.000000pt" height="850.000000pt" viewBox="0 0 850.000000 850.000000"
 preserveAspectRatio="xMidYMid meet">
<metadata>
Created by potrace 1.14, written by Peter Selinger 2001-2017
</metadata>
<g transform="translate(0.000000,850.000000) scale(0.100000,-0.100000)"
fill="#000000" stroke="none">
<path d="M0 4250 l0 -4250 4250 0 4250 0 0 4250 0 4250 -4250 0 -4250 0 0
-4250z m4110 3430 l0 -120 -115 0 -115 0 0 120 0 120 115 0 115 0 0 -120z
m230 -390 l0 -259 -112 -3 -113 -3 -3 -127 -3 -128 116 0 115 0 0 -125 0 -125
-115 0 -115 0 0 125 0 125 -115 0 -115 0 2 258 3 257 113 3 112 3 0 129 0 130
115 0 115 0 0 -260z m-820 -260 l0 -259 108 -3 107 -3 0 -250 0 -250 -107 -3
-108 -3 0 -119 0 -120 -120 0 -121 0 3 123 3 122 113 3 112 3 2 224 c1 124 2
235 2 248 1 21 -2 22 -116 25 l-118 3 0 168 c0 92 3 209 6 259 l7 92 113 0
114 0 0 -260z m1244 115 c2 -77 5 -193 5 -257 l1 -117 118 -3 117 -3 3 -122 3
-123 -121 0 -120 0 0 125 0 125 -120 0 -120 0 0 260 0 261 115 -3 115 -3 4
-140z m6 -755 l0 -120 120 0 120 0 0 -125 0 -125 -120 0 -120 0 0 120 0 120
-120 0 -120 0 0 125 0 125 120 0 120 0 0 -120z m-660 -245 l0 -125 -115 0
-115 0 0 118 c0 65 3 122 7 125 3 4 55 7 115 7 l108 0 0 -125z m1750 -660 l0
-264 133 -3 132 -3 8 -125 c5 -79 12 -127 20 -132 6 -4 67 -8 135 -8 l122 0 0
-400 0 -400 -135 0 -134 0 -3 -137 -3 -138 -412 4 -412 4 -3 -134 -3 -134
-137 -3 -138 -3 0 -140 0 -141 548 3 547 3 5 -138 c3 -76 3 -140 1 -142 -2 -2
-890 -4 -1973 -4 l-1969 0 3 143 3 142 545 0 545 0 3 137 3 137 -138 3 -138 3
-3 128 -3 127 -134 0 -135 0 -2 268 -3 267 -137 5 -137 5 3 75 c2 41 4 342 5
668 l1 592 1695 0 1695 0 0 -265z m-3112 -2902 l2 -173 -400 0 -400 0 0 -290
0 -290 400 0 400 0 0 -145 0 -145 -400 0 -399 0 -3 143 -3 142 -137 3 -137 3
-3 131 -3 131 -112 -2 -113 -2 0 125 0 126 114 0 115 0 3 33 3 32 135 5 135 5
3 173 2 172 398 -2 397 -3 3 -172z m1110 0 l2 -173 136 0 136 0 -4 -435 -3
-435 -132 0 -133 0 0 240 0 240 -285 0 -285 0 0 -240 0 -240 -135 0 -135 0 0
435 0 435 135 0 135 0 0 168 c0 93 3 172 7 175 4 4 131 6 282 5 l276 -3 3
-172z m1022 2 l0 -175 -150 0 -150 0 0 -89 0 -89 63 -7 c35 -4 101 -5 148 -3
l84 3 3 -102 3 -102 -148 -3 -148 -3 -3 -237 -2 -238 -145 0 -145 0 0 603 c0
332 3 607 7 610 3 4 136 7 295 7 l288 0 0 -175z m728 -2 l2 -173 -150 0 -150
0 0 -90 0 -90 150 0 150 0 0 -105 0 -104 -147 -3 -148 -3 -3 -237 -2 -238
-142 0 -141 0 6 182 c4 99 7 374 7 610 l0 428 283 -2 282 -3 3 -172z m1042 2
l0 -175 -255 0 -255 0 0 -90 0 -90 135 0 135 0 0 -105 0 -105 -135 0 -135 0 0
-95 0 -95 260 0 260 0 0 -145 0 -145 -405 0 -405 0 0 558 c0 306 3 581 6 610
l7 52 393 0 394 0 0 -175z m230 10 l0 -65 -80 0 -80 0 0 65 0 65 80 0 80 0 0
-65z m-2352 -1383 l3 -61 -118 -3 c-140 -4 -129 12 -118 -175 l7 -123 114 0
114 0 0 -65 0 -65 -120 0 -120 0 0 60 0 60 -60 0 -60 0 0 155 0 155 60 0 60 0
0 60 0 59 108 3 c59 2 112 3 117 2 6 0 11 -28 13 -62z m254 -34 l3 -103 68 -3
67 -3 0 100 0 99 56 4 c31 1 58 1 60 -1 2 -2 4 -127 4 -278 l0 -273 -60 0 -60
0 0 110 0 110 -70 0 -70 0 0 -110 0 -110 -54 0 c-52 0 -54 1 -60 31 -8 42 -8
514 1 522 3 4 30 7 59 7 l53 0 3 -102z m-1162 32 l0 -59 -77 -3 -78 -3 0 -213
0 -212 -57 0 -58 0 -2 213 -3 212 -82 3 -83 3 0 59 0 60 220 0 220 0 0 -60z
m480 0 l0 -60 -125 0 -125 0 0 -40 0 -40 75 0 76 0 -3 -62 -3 -63 -72 -3 -73
-3 0 -44 0 -45 125 0 125 0 0 -65 0 -65 -185 0 -185 0 0 275 0 275 185 0 185
0 0 -60z"/>
<path d="M2750 5210 l0 -260 1140 0 1140 0 0 135 0 135 275 0 275 0 0 125 0
125 -1415 0 -1415 0 0 -260z"/>
<path d="M5860 4680 l0 -269 -137 -3 -138 -3 -3 -128 -3 -127 278 2 278 3 3
398 2 397 -140 0 -140 0 0 -270z"/>
<path d="M3290 2336 c0 -41 3 -81 6 -90 5 -14 40 -16 285 -16 l279 0 0 90 0
90 -285 0 -285 0 0 -74z"/>
</g>
</svg>
